# xmcd CD database file
#
# Track frame offsets:
#	182
#	12870
#	29115
#	42747
#	53512
#	67642
#	79957
#	94190
#	105365
#	119135
#	133620
#	147075
#	157210
#	170162
#
# Disc length: 2495 seconds
#
# Revision: 0
# Processed by: cddbd v1.5.2PL0 Copyright (c) Steve Scherf et al.
# Submitted via: ACXtractor (MTCDDB.DLL V2003.12.21)
#
DISCID=c509bd0e
DTITLE=Bazza, Buts N' Boyter - Legends of Country Guitar
DYEAR=2000
DGENRE=Country
TTITLE0=This Old Guitar
TTITLE1=Home in Dirranbandi
TTITLE2=Hobnail Express
TTITLE3=Tjalka
TTITLE4=It's Midnight
TTITLE5=Way Out West
TTITLE6=Before I Go
TTITLE7=Whistling Rufus
TTITLE8=Days of Old Khancoban
TTITLE9=Blue Misty Mountains
TTITLE10=Sandy's Waltz
TTITLE11=Country Revival
TTITLE12=Ellenborough Falls
TTITLE13=Camooweal
EXTD=ID3G:   2 YEAR: 2000
EXTT0=
EXTT1=
EXTT2=
EXTT3=
EXTT4=
EXTT5=
EXTT6=
EXTT7=
EXTT8=
EXTT9=
EXTT10=
EXTT11=
EXTT12=
EXTT13=
PLAYORDER=
